<svg xmlns="http://www.w3.org/2000/svg" viewBox="0 0 256 256" role="img" aria-label="University">
  <rect width="256" height="256" rx="38" fill="#ffffff"/>
  <path fill="#166d6b" d="M128 35 40 84v20h176V84L128 35Z"/>
  <path fill="#eef4f4" d="M128 58 72 89h112l-56-31Z"/>
  <path fill="#166d6b" d="M55 113h25v73H55v-73Zm40 0h25v73H95v-73Zm40 0h25v73h-25v-73Zm40 0h25v73h-25v-73Z"/>
  <path fill="#166d6b" d="M43 196h170v18H43v-18Zm-12 28h194v18H31v-18Z"/>
  <path fill="#ffffff" d="M66 125h8v49h-8v-49Zm40 0h8v49h-8v-49Zm40 0h8v49h-8v-49Zm40 0h8v49h-8v-49Z" opacity=".48"/>
</svg>
