<svg xmlns="http://www.w3.org/2000/svg" viewBox="0 0 24 24" role="img" aria-label="Signal">
  <path fill="#fff" d="M12 3.4a8.6 8.6 0 0 1 7.7 12.5l1.1 4.1-4.2-1.1A8.6 8.6 0 1 1 12 3.4Zm0 2a6.6 6.6 0 0 0-5.8 9.8l.3.5-.5 1.9 1.9-.5.5.3A6.6 6.6 0 1 0 12 5.4Z"/>
  <path fill="#fff" d="M12 1.2c.4 0 .8 0 1.2.1l-.2 1.5c-.3 0-.7-.1-1-.1V1.2Zm3 .5c.4.1.8.3 1.1.5l-.7 1.4-.9-.4.5-1.5Zm2.7 1.5c.3.3.6.5.9.8l-1.1 1.1-.7-.7.9-1.2ZM20 5.5c.2.4.4.7.6 1.1l-1.4.6-.5-.9 1.3-.8Zm1.1 2.8c.1.4.2.8.2 1.2l-1.5.2-.2-1 1.5-.4ZM22.8 12h-1.5c0-.3 0-.7-.1-1l1.5-.2c.1.4.1.8.1 1.2ZM2.8 12H1.2c0-.4 0-.8.1-1.2l1.5.2v1Zm.6-3.3-.2 1-1.5-.3c.1-.4.1-.8.2-1.2l1.5.5Zm1.4-2.4-.5.9-1.4-.6c.2-.4.4-.7.6-1.1l1.3.8Zm1.9-1.9-.7.7L4.9 4c.3-.3.6-.6.9-.8l.9 1.2Zm2.3-1.2-.9.4-.7-1.4c.4-.2.7-.3 1.1-.5L9 3.2Zm3-.5c-.3 0-.7 0-1 .1l-.2-1.5c.4 0 .8-.1 1.2-.1v1.5Z" opacity=".9"/>
</svg>
