<svg xmlns="http://www.w3.org/2000/svg" viewBox="0 0 24 24" role="img" aria-label="WeChat">
  <path fill="#fff" d="M9.4 4C5.3 4 2 6.8 2 10.2c0 2 1.1 3.8 2.9 4.9l-.7 2.1 2.5-1.2c.8.3 1.7.4 2.7.4h.7c-.2-.5-.3-1.1-.3-1.7 0-3.2 3-5.8 6.7-5.8h.5C16.2 6.1 13.1 4 9.4 4Zm-2.3 4.1c.6 0 1 .5 1 1s-.4 1-1 1-1-.4-1-1 .5-1 1-1Zm4.9 0c.6 0 1 .5 1 1s-.4 1-1 1-1-.4-1-1 .4-1 1-1Z"/>
  <path fill="#fff" d="M16.6 10.4c-3 0-5.4 2-5.4 4.5s2.4 4.5 5.4 4.5c.8 0 1.5-.1 2.2-.4l2 1-.6-1.7c1.1-.8 1.8-2 1.8-3.4 0-2.5-2.4-4.5-5.4-4.5Zm-1.7 2.6c.4 0 .8.3.8.8s-.4.8-.8.8-.8-.3-.8-.8.3-.8.8-.8Zm3.5 0c.4 0 .8.3.8.8s-.4.8-.8.8-.8-.3-.8-.8.4-.8.8-.8Z"/>
</svg>
