<svg xmlns="http://www.w3.org/2000/svg" viewBox="0 0 24 24" role="img" aria-label="WeChat">
  <path fill="#fff" d="M9.2 4.4C5.2 4.4 2 7 2 10.2c0 1.8 1 3.4 2.6 4.5L4 16.8l2.3-1.1c.9.3 1.8.5 2.9.5h.9c-.2-.5-.3-1-.3-1.6 0-3 2.8-5.4 6.2-5.4h.3c-.7-2.7-3.6-4.8-7.1-4.8Zm-2.3 3.8c.5 0 .9.4.9.9s-.4.9-.9.9-.9-.4-.9-.9.4-.9.9-.9Zm4.6 0c.5 0 .9.4.9.9s-.4.9-.9.9-.9-.4-.9-.9.4-.9.9-.9Z"/>
  <path fill="#fff" d="M16 10.5c-2.8 0-5 1.9-5 4.2s2.2 4.2 5 4.2c.8 0 1.5-.2 2.1-.4l1.9.9-.5-1.6c1-.8 1.5-1.8 1.5-3.1 0-2.3-2.2-4.2-5-4.2Zm-1.6 2.4c.4 0 .7.3.7.7s-.3.7-.7.7-.7-.3-.7-.7.3-.7.7-.7Zm3.3 0c.4 0 .7.3.7.7s-.3.7-.7.7-.7-.3-.7-.7.3-.7.7-.7Z"/>
</svg>
