<svg xmlns="http://www.w3.org/2000/svg" viewBox="0 0 24 24" role="img" aria-label="WhatsApp">
  <path fill="#fff" d="M12 2.5a9.4 9.4 0 0 0-8.1 14.2L2.8 21l4.4-1.1A9.5 9.5 0 1 0 12 2.5Zm0 1.8a7.7 7.7 0 1 1-3.9 14.3l-.4-.2-2.4.6.6-2.3-.3-.4A7.7 7.7 0 0 1 12 4.3Zm-3.3 3.9c-.3 0-.8.1-1.2.6-.4.5-.8 1.1-.8 2 0 1.4 1 2.9 2.4 4.2 1.4 1.4 3.3 2.3 4.8 2.3.9 0 1.5-.3 2-.7.5-.4.7-1.1.8-1.5.1-.3 0-.6-.3-.7l-2.2-1c-.3-.1-.6-.1-.8.2l-.8 1c-.2.2-.4.3-.7.1-1.4-.6-2.5-1.5-3.3-3.1-.1-.3 0-.5.2-.7l.8-.8c.2-.2.3-.5.1-.8l-.9-2c-.1-.2-.3-.3-.6-.3Z"/>
</svg>
