<svg xmlns="http://www.w3.org/2000/svg" viewBox="0 0 24 24" role="img" aria-label="WhatsApp">
  <path fill="#fff" d="M12 2.1a9.8 9.8 0 0 0-8.5 14.7L2.4 22l5.3-1.2A9.8 9.8 0 1 0 12 2.1Zm0 1.8a8 8 0 1 1-3.7 15.1l-.3-.2-3 .7.7-2.9-.2-.3A8 8 0 0 1 12 3.9Zm-3.1 4c-.2 0-.5.1-.8.4-.3.3-1 1-1 2.4 0 1.4 1 2.7 1.2 2.9.1.2 2 3.1 4.9 4.2 2.4 1 2.9.8 3.4.7.5-.1 1.6-.7 1.8-1.3.2-.6.2-1.2.1-1.3-.1-.1-.3-.2-.7-.4l-1.9-.9c-.3-.1-.6-.1-.8.2l-.7.9c-.2.3-.4.3-.7.1-.4-.2-1.4-.5-2.6-1.6-1-1-1.6-2.1-1.8-2.4-.2-.4 0-.5.1-.7l.5-.6c.2-.2.2-.4.3-.6.1-.2 0-.4 0-.6L9.4 8c-.1-.1-.3-.1-.5-.1Z"/>
</svg>
